<svg width="170" height="30" viewBox="0 0 170 30" fill="none" xmlns="http://www.w3.org/2000/svg">
<path d="M51.3533 18.6846H44.935L43.639 21.688H39.8333L46.6013 7.18514H49.6047L56.3933 21.688H52.6493L51.3533 18.6846ZM50.1395 15.8457L48.1441 11.1966L46.1487 15.8457H50.1395Z" fill="#2A2A2A"/>
<path d="M57.2519 7.18514H61.0371V18.6229H67.2085V21.688H57.2519V7.18514Z" fill="#2A2A2A"/>
<path d="M69.0243 7.18514H76.0391C77.6437 7.18514 78.8917 7.59657 79.7831 8.41943C80.6746 9.22857 81.1203 10.36 81.1203 11.8137C81.1203 13.2537 80.6677 14.3851 79.7626 15.208C78.8711 16.0309 77.63 16.4423 76.0391 16.4423H72.8094V21.688H69.0243V7.18514ZM75.5248 13.6034C76.2243 13.6034 76.7386 13.4594 77.0677 13.1714C77.4106 12.8834 77.582 12.4377 77.582 11.8343C77.582 11.2309 77.4106 10.7851 77.0677 10.4971C76.7386 10.1954 76.2243 10.0446 75.5248 10.0446H72.8094V13.6034H75.5248Z" fill="#2A2A2A"/>
<path d="M96.2764 7.18514V21.688H92.5736V15.8251H86.649V21.688H82.9461V7.18514H86.649V12.8217H92.5736V7.18514H96.2764Z" fill="#2A2A2A"/>
<path d="M108.668 18.6846H102.25L100.954 21.688H97.148L103.916 7.18514H106.919L113.708 21.688H109.964L108.668 18.6846ZM107.454 15.8457L105.459 11.1966L103.463 15.8457H107.454Z" fill="#2A2A2A"/>
<path d="M125.699 21.8731C124.615 21.8731 123.545 21.7291 122.489 21.4411C121.433 21.1531 120.576 20.7691 119.918 20.2891L121.091 17.6149C121.79 18.0537 122.537 18.3897 123.333 18.6229C124.128 18.856 124.931 18.9726 125.74 18.9726C126.563 18.9726 127.187 18.8629 127.612 18.6434C128.051 18.4103 128.27 18.088 128.27 17.6766C128.27 17.3063 128.071 17.0046 127.673 16.7714C127.289 16.5383 126.549 16.3051 125.452 16.072C124.094 15.784 123.031 15.4411 122.263 15.0434C121.495 14.6457 120.953 14.1794 120.638 13.6446C120.336 13.1097 120.185 12.4514 120.185 11.6697C120.185 10.7783 120.432 9.98286 120.926 9.28343C121.433 8.57029 122.14 8.01486 123.045 7.61714C123.964 7.20571 125.013 7 126.192 7C127.235 7 128.243 7.15086 129.216 7.45257C130.204 7.74057 130.972 8.11772 131.52 8.584L130.368 11.2583C129.052 10.3531 127.667 9.90057 126.213 9.90057C125.513 9.90057 124.951 10.0377 124.526 10.312C124.101 10.5726 123.888 10.9223 123.888 11.3611C123.888 11.6217 123.964 11.8343 124.115 11.9989C124.265 12.1634 124.547 12.328 124.958 12.4926C125.369 12.6434 125.98 12.8011 126.789 12.9657C128.105 13.2537 129.141 13.6034 129.895 14.0149C130.649 14.4126 131.184 14.8789 131.5 15.4137C131.815 15.9486 131.973 16.5863 131.973 17.3269C131.973 18.7531 131.424 19.8709 130.327 20.68C129.23 21.4754 127.687 21.8731 125.699 21.8731Z" fill="#2A2A2A"/>
<path d="M140.676 11.32C141.883 11.32 142.781 11.6834 143.371 12.4103C143.96 13.1234 144.255 14.2137 144.255 15.6811V21.688H140.594V15.8457C140.594 15.2423 140.484 14.8034 140.264 14.5291C140.059 14.2549 139.743 14.1177 139.318 14.1177C138.77 14.1177 138.331 14.296 138.002 14.6526C137.686 14.9954 137.528 15.4617 137.528 16.0514V21.688H133.867V7.18514H137.528V12.7806C137.899 12.3006 138.351 11.9371 138.886 11.6903C139.421 11.4434 140.018 11.32 140.676 11.32Z" fill="#2A2A2A"/>
<path d="M151.424 21.8526C150.313 21.8526 149.332 21.64 148.482 21.2149C147.645 20.776 146.994 20.1589 146.528 19.3634C146.075 18.568 145.849 17.6354 145.849 16.5657C145.849 15.496 146.075 14.5703 146.528 13.7886C146.994 12.9931 147.645 12.3829 148.482 11.9577C149.319 11.5326 150.299 11.32 151.424 11.32C152.548 11.32 153.529 11.5326 154.365 11.9577C155.202 12.3829 155.847 12.9931 156.299 13.7886C156.765 14.5703 156.999 15.496 156.999 16.5657C156.999 17.6354 156.765 18.568 156.299 19.3634C155.847 20.1589 155.202 20.776 154.365 21.2149C153.529 21.64 152.548 21.8526 151.424 21.8526ZM151.424 19.1166C152.727 19.1166 153.378 18.2663 153.378 16.5657C153.378 14.8651 152.727 14.0149 151.424 14.0149C150.121 14.0149 149.469 14.8651 149.469 16.5657C149.469 18.2663 150.121 19.1166 151.424 19.1166Z" fill="#2A2A2A"/>
<path d="M165.363 11.32C166.227 11.32 166.995 11.5463 167.667 11.9989C168.353 12.4377 168.881 13.0617 169.251 13.8709C169.635 14.68 169.827 15.6057 169.827 16.648C169.827 17.6903 169.635 18.6091 169.251 19.4046C168.881 20.1863 168.36 20.7897 167.688 21.2149C167.016 21.64 166.241 21.8526 165.363 21.8526C164.719 21.8526 164.122 21.7223 163.573 21.4617C163.039 21.2011 162.62 20.8514 162.319 20.4126V25.3909H158.657V11.5669H162.257V12.8629C162.545 12.3829 162.963 12.0057 163.512 11.7314C164.074 11.4571 164.691 11.32 165.363 11.32ZM164.252 19.1166C164.883 19.1166 165.363 18.904 165.692 18.4789C166.035 18.0537 166.207 17.4434 166.207 16.648C166.207 15.8114 166.035 15.1737 165.692 14.7349C165.349 14.2823 164.863 14.056 164.232 14.056C163.601 14.056 163.114 14.2754 162.771 14.7143C162.428 15.1531 162.257 15.784 162.257 16.6069C162.257 17.416 162.428 18.04 162.771 18.4789C163.114 18.904 163.608 19.1166 164.252 19.1166Z" fill="#2A2A2A"/>
<path fill-rule="evenodd" clip-rule="evenodd" d="M19.2748 13.853C19.2748 13.853 13.6747 22.9334 9.0833 22.9334C1.05245 22.9334 8.53664 5.63477 14.3938 5.63477C18.4808 5.63477 19.2748 13.853 19.2748 13.853Z" fill="#F67599"/>
<path fill-rule="evenodd" clip-rule="evenodd" d="M25.9293 25.2728C24.334 26.9704 22.3649 28.2731 20.1784 29.0774C17.9919 29.8818 15.648 30.1658 13.3326 29.9069C11.0172 29.648 8.79399 28.8533 6.83923 27.5859C4.88446 26.3184 3.25192 24.613 2.07104 22.6049C3.39867 24.4106 5.65044 25.6144 8.85237 25.6144C16.7401 25.6144 21.2175 19.4849 21.2175 19.4849C21.2175 19.4849 21.6048 24.3293 25.9196 25.2728H25.9293Z" fill="#F67599"/>
<path fill-rule="evenodd" clip-rule="evenodd" d="M28.2916 8.05859C29.4721 10.3143 30.0585 12.8334 29.9953 15.3785C29.9321 17.9235 29.2214 20.4105 27.9304 22.6048C26.9092 22.0321 26.1543 21.0809 25.8283 19.9565L24.1167 14.8291L28.2916 8.05859Z" fill="#808080"/>
<path fill-rule="evenodd" clip-rule="evenodd" d="M15.0024 0.0130266C18.7639 0.0105251 22.3885 1.42411 25.1548 3.97249L22.3141 8.55661C21.2858 5.88226 19.1968 3.20468 15.1325 3.20468C6.8088 3.20468 0.63923 12.2916 0.63923 17.9884C0.637396 18.7252 0.731462 19.459 0.919069 20.1715C0.0866864 17.9044 -0.185961 15.4699 0.124289 13.0748C0.434539 10.6798 1.31852 8.39507 2.7011 6.41479C4.08368 4.43452 5.92399 2.81725 8.06563 1.70044C10.2073 0.583634 12.5869 0.00029138 15.0024 0V0.0130266Z" fill="#808080"/>
</svg>
